{"title":"3 10 to Yuma(1993)MP-4[DaScubaDude]","uid":12644955,"size":959468211,"categoryP":"video","categoryS":"movies","magnet":"?xt=urn:btih:77b70fc6275fcab990a17dcffaab9d90b38193c4&amp;dn=3+10+to+Yuma%281993%29MP-4%5BDaScubaDude%5D&amp;tr=udp%3A%2F%2Ftracker.leechers-paradise.org%3A6969&amp;tr=udp%3A%2F%2Fzer0day.ch%3A1337&amp;tr=udp%3A%2F%2Fopen.demonii.com%3A1337&amp;tr=udp%3A%2F%2Ftracker.coppersurfer.tk%3A6969&amp;tr=udp%3A%2F%2Fexodus.desync.com%3A6969","seeders":0,"leechers":0,"uploader":"dascuba","files":1,"time":1446042053,"description":"3:10 to Yuma (2007)\r\nR  |  122 min  |  Adventure, Crime, Drama  |  7 September 2007 (USA)\r\n7.8 Your rating:   -/10   Ratings: 7.8/10 from 224,774 users   Metascore: 76/100 \r\nReviews: 558 user | 291 critic | 37 from Metacritic.com\r\nA small-time rancher agrees to hold a captured outlaw who's awaiting a train to go to court in Yuma. A battle of wills ensues as the outlaw tries to psych out the rancher.\r\n\r\nDirector: James Mangold\r\nWriters: Halsted Welles (screenplay), Michael Brandt (screenplay), 2 more credits »\r\nStars: Russell Crowe, Christian Bale, Ben Foster \r\n\r\nGeneral\r\nComplete name                            : C:3 10 to  Yuma310 To Yuma_Title1.mp4\r\nFormat                                   : MPEG-4\r\nFormat profile                           : Base Media\r\nCodec ID                                 : isom\r\nFile size                                : 915 MiB\r\nDuration                                 : 1h 36mn\r\nOverall bit rate                         : 1 330 Kbps\r\nMovie name                               : 310_To_Yuma\r\nGenre                                    : Western\r\nWriting application                      : Lavf54.6.100\r\n\r\nVideo\r\nID                                       : 1\r\nFormat                                   : AVC\r\nFormat/Info                              : Advanced Video Codec\r\nFormat profile                           :   \r\nFormat settings, CABAC                   : No\r\nFormat settings, ReFrames                : 6 frames\r\nCodec ID                                 : avc1\r\nCodec ID/Info                            : Advanced Video Coding\r\nDuration                                 : 1h 36mn\r\nBit rate                                 : 1 196 Kbps\r\nWidth                                    : 720 pixels\r\nHeight                                   : 404 pixels\r\nDisplay aspect ratio                     : 16:9\r\nFrame rate mode                          : Constant\r\nFrame rate                               : 29.970 fps\r\nColor space                              : YUV\r\nChroma subsampling                       : 4:2:0\r\nBit depth                                : 8 bits\r\nScan type                                : Progressive\r\nBits/(Pixel*Frame)                       : 0.137\r\nStream size                              : 822 MiB (90%)\r\n\r\nAudio\r\nID                                       : 2\r\nFormat                                   : AAC\r\nFormat/Info                              : Advanced Audio Codec\r\nFormat profile                           : LC\r\nCodec ID                                 : 40\r\nDuration                                 : 1h 36mn\r\nBit rate mode                            : Constant\r\nBit rate                                 : 128 Kbps\r\nChannel(s)                               : 2 channels\r\nChannel positions                        : Front: L R\r\nSampling rate                            : 44.1 KHz\r\nCompression mode                         : Lossy\r\nStream size                              : 88.0 MiB (10%)","torrent":{"xt":"urn:btih:77b70fc6275fcab990a17dcffaab9d90b38193c4","amp;dn":"3+10+to+Yuma%281993%29MP-4%5BDaScubaDude%5D","amp;tr":["udp%3A%2F%2Ftracker.leechers-paradise.org%3A6969","udp%3A%2F%2Fzer0day.ch%3A1337","udp%3A%2F%2Fopen.demonii.com%3A1337","udp%3A%2F%2Ftracker.coppersurfer.tk%3A6969","udp%3A%2F%2Fexodus.desync.com%3A6969"],"infoHash":"77b70fc6275fcab990a17dcffaab9d90b38193c4","infoHashBuffer":{"type":"Buffer","data":[119,183,15,198,39,95,202,185,144,161,125,207,250,171,157,144,179,129,147,196]},"announce":[],"urlList":[]}}